<svg width="734" height="640" viewBox="0 0 734 640" fill="none" xmlns="http://www.w3.org/2000/svg" xmlns:xlink="http://www.w3.org/1999/xlink">
<rect width="734" height="640" fill="url(#pattern0)"/>
<defs>
<pattern id="pattern0" patternContentUnits="objectBoundingBox" width="1" height="1">
<use xlink:href="#image0" transform="translate(-0.00408719) scale(0.0013624 0.0015625)"/>
</pattern>
<image id="image0" width="740" height="640" xlink:href="img/home.png"/>
</defs>
<path d="M222 528.783L442.8 536.899L512 523V545.014L443.5 565L222 553.841V528.783Z" fill="#3595F6" fill-opacity="0.75"/>
<path d="M223 528V503L443.3 506.3L513 503V523L443.7 536L223 528Z" fill="#3595F6" fill-opacity="0.75"/>
<path d="M223 502V477H444H513V500L445 507L223 502Z" fill="#3595F6" fill-opacity="0.75"/>
<path d="M223 478V452.739L444.3 449L512 455.77V478H444" fill="#3595F6" fill-opacity="0.75"/>
<path d="M223 451.935V425.372L444.5 422L513 433.238V455L444 448.155L223 451.935Z" fill="#3595F6" fill-opacity="0.75"/>
<path d="M222 424.569V400.494L443 388L514 411.363V433L443 420.506L222 424.569Z" fill="#3595F6" fill-opacity="0.75"/>
<path d="M222 402.886V377.531L444.2 361L514 390.006V411L443.7 388.992L222 402.886Z" fill="#3595F6" fill-opacity="0.75"/>
<path d="M222 377.063V352.194L444.5 332L514 368.408V389L442 360.45L222 377.063Z" fill="#3595F6" fill-opacity="0.75"/>
<path d="M222 350.922V326.813L445 302L514 346.201V368L444.7 329.826L222 350.922Z" fill="#3595F6" fill-opacity="0.75"/>
<path d="M222 325.921V301.82L444.5 273L514 324.213V345L443.7 302.523L222 325.921Z" fill="#3595F6" fill-opacity="0.75"/>
<path d="M221 302V278L443.3 245L514 304.3V324L444 273.3L221 302Z" fill="#3595F6" fill-opacity="0.75"/>
<path d="M222 277V253L443.2 218L513 282V303L444.3 244.7L222 277Z" fill="#3595F6" fill-opacity="0.75"/>
<path d="M222 253V228L444.3 190L513 260.3V281L444 217L222 253Z" fill="#3595F6" fill-opacity="0.75"/>
<path d="M222 226.903V201.829L442.8 158L513 237.233V260L444 186.484L222 226.903Z" fill="#3595F6" fill-opacity="0.75"/>
<path d="M223 202.676V177.444L443 129L513 214.787V238L442.3 157.966L223 202.676Z" fill="#3595F6" fill-opacity="0.75"/>
<path d="M222 177.67V152.452L441.8 100L513 193.103V216L443.3 128.95L222 177.67Z" fill="#3595F6" fill-opacity="0.75"/>
<path d="M222 152.576V126.301L444 69L513 171.778V193L443.7 100.328L222 152.576Z" fill="#3595F6" fill-opacity="0.75"/>

</svg>
